<svg xmlns="http://www.w3.org/2000/svg" width="600" height="600" viewBox="0 0 760 760">
  <path fill="currentColor" d="M351 3a321 321 0 0 0-107 21l-5 2-14 5a180 180 0 0 0-17 8l-2 1-7 4-8 4-10 6-5 3-1 1-6 3-6 4-15 11-16 13-9 7c-11 10-30 30-37 39l-3 4-7 10a1170 1170 0 0 0-25 37 240 240 0 0 0-10 19l-8 16-3 7-2 6-5 14a143 143 0 0 0-8 25l-2 7-2 9a218 218 0 0 0-7 46 422 422 0 0 0 7 113 397 397 0 0 0 19 60l5 10a472 472 0 0 0 15 30l4 7a185 185 0 0 0 11 18 204 204 0 0 0 20 27l7 7a410 410 0 0 0 79 66l2 2a369 369 0 0 0 519-140l1-2 9-18a186 186 0 0 1 5-13l2-5a345 345 0 0 0 22-168l-2-16a362 362 0 0 0-61-153l-10-14a47 47 0 0 0-7-8l-3-4-4-5a583 583 0 0 0-72-63l-3-3-4-2-3-2-1-1-2-1-4-3-4-2-3-2-4-2-4-2-4-2-3-2-4-2-2-1-5-2-16-7-10-4-5-2-6-2-10-3-13-4C429 6 390 2 351 3zm43 10a348 348 0 0 1 129 34l9 5a130 130 0 0 1 23 13l3 2 5 4 6 3 2 2 3 2 6 4 14 11a144 144 0 0 1 15 13 417 417 0 0 1 58 70c2 1 8 12 16 27l5 9 2 6 5 11a81 81 0 0 1 6 15l7 19a334 334 0 0 1 12 151l-2 16a377 377 0 0 1-30 94l-5 9a241 241 0 0 1-38 57l-26 30a331 331 0 0 1-41 35l-4 3a166 166 0 0 1-19 12l-16 10-6 3a153 153 0 0 1-25 12l-4 2-4 1-10 4a384 384 0 0 0-21 7 348 348 0 0 1-313-55 324 324 0 0 1-87-93l-2-3-2-3-1-2c-3-2-17-30-23-44l-4-8-3-7-3-11a379 379 0 0 1-18-116c0-36 0-41 6-70a325 325 0 0 1 22-70l4-10 3-6 4-9a187 187 0 0 1 24-38l2-3 4-6a115 115 0 0 1 11-14 195 195 0 0 1 13-15 526 526 0 0 1 54-48 229 229 0 0 1 16-10l27-16 9-5 5-2 8-3 11-5 9-4 4-1 7-2a342 342 0 0 1 137-17zm-53 107a211 211 0 0 0-66 16 177 177 0 0 0-30 14l-2 1-3 2a240 240 0 0 0-106 127 220 220 0 0 0-16 74 259 259 0 0 0 36 144l4 6 2 3 1 1 7 10 1 2 2 2 2 2 18 21a103 103 0 0 0 22 19c0 1 22 17 33 22l9 5a259 259 0 0 0 113 27 268 268 0 0 0 87-16l14-6a281 281 0 0 0 42-24l7-5-4-2a259 259 0 0 0-46-13l-17-5a424 424 0 0 0-30-10l-9-3-11-5-6-2-8-3-9-4-5-2-18-8-4-2-4-2-7-4a230 230 0 0 1-20-10l-20-11-8-5a137 137 0 0 1-15-9l-9-6-3-2-2-1-7-5-5-4-1-1a114 114 0 0 1-41-45c-3-8-3-9-3-17l2-9 2-4a84 84 0 0 1 29-31 97 97 0 0 1 16-9 97 97 0 0 1 11-7l9-4 12-6 6-2 3-1 10-5 10-4 4-1 4-1a386 386 0 0 1 41-16l5-2c3 0 21-10 24-13l3-3-2-2c-4-3-11-4-52-7-31-2-40-3-45-7-6-5-4-13 6-22l7-7c4-4 4-8 0-11-2-2-4-2-13-2-11 0-19 1-43 6l-19 1c-9 0-10 0-12-2-3-3-3-6 1-11 5-8 5-8 26-8a114 114 0 0 0 40-7l-1-1c-1 0-2-4 0-6 2-3 10-4 42-6 26-1 35-3 52-11l14-10 7-8c1-2 1-2 3-1 2 3 3 8 0 14-3 5-10 13-12 13l-1 1-5 5-6 4-1 1-3 1-6 6c-10 8-22 21-24 26-4 7-4 7-1 10 3 2 8 4 20 5a324 324 0 0 1 33 4 3102 3102 0 0 1 97 9c17 4 23 9 20 17-1 4-8 10-13 12l-3 2-2 1-5 2-11 5-5 2-10 4a306 306 0 0 1-18 7l-27 12-4 2-4 2-7 4-7 3-2 1-4 2-3 2a125 125 0 0 0-22 15c-2 0-10 10-11 14-1 5 0 8 4 12a199 199 0 0 0 60 26l7 2 7 2 14 3 15 3 14 3a293 293 0 0 0 38 4c25 3 83 5 90 4 3-1 4-2 6-16a246 246 0 0 0-61-195 262 262 0 0 0-111-72 220 220 0 0 0-103-10z"/>
</svg>
