<svg xmlns="http://www.w3.org/2000/svg" viewBox="0 0 760 760" width="600" height="600">
  <path d="M351 3.1c-14 .5-20.5 1.2-43 4.5-11.3 1.7-24.6 4.5-35 7.4-3.6 1-9.2 2.6-12.5 3.6-3.3.9-7.9 2.5-10.3 3.5-2.3 1.1-5 1.9-5.9 1.9-.9 0-3.4.9-5.7 1.9-2.3 1-8.1 3.6-13.1 5.6-4.9 2-10.7 4.5-12.7 5.6-2 1-4.4 1.9-5.2 1.9-.9 0-1.6.4-1.6.8 0 .5-3.3 2.3-7.2 4.2-4 1.8-7.5 3.6-7.8 4-.5.7-2.1 1.6-10.3 5.9-2.6 1.4-4.7 2.9-4.7 3.3 0 .4-.5.8-1 .8-.6 0-3.2 1.5-5.8 3.3-2.6 1.8-5.4 3.6-6.2 4-1.5.7-9.1 6.1-14.9 10.7-8.4 6.5-15.4 12.2-16.6 13.3-.7.6-4.4 3.9-8.2 7.2-11.2 9.8-30.5 30-37.4 39-1.3 1.6-2.6 3.2-2.9 3.5-.4.3-3.6 4.5-7.3 9.5-3.7 4.9-7.6 10.2-8.7 11.7-1.1 1.4-2 3.1-2 3.7 0 .6-.4 1.1-.9 1.1s-1.6 1.5-2.6 3.2c-2.8 5.6-4.1 7.7-5.7 9.5-.8 1-1.8 2.5-2.1 3.3-.4.8-1.8 3.3-3.2 5.5-1.3 2.2-3.8 6.7-5.5 10-1.6 3.3-3.6 7.1-4.4 8.5-1.4 2.5-3.3 6.8-7.6 16.5-1.2 2.7-2.6 5.9-3.1 7-.4 1.1-1.5 3.8-2.3 6-2.6 7.3-3.9 11-5.1 14-1.9 4.5-5.3 15.6-6 19.5-.4 1.9-1.1 3.9-1.5 4.5-.5.5-1.3 3.9-2 7.3-.6 3.5-1.5 7.5-2 8.8-1.2 3.1-3.9 18.9-5 28.9-.5 4.4-1.4 12.3-2.2 17.5-1.7 12.7-1.7 53.4.1 66.5.7 5.5 1.7 13.4 2.1 17.5.9 8.3 2.1 15.1 5.1 28.5 2.6 11.9 8.9 33.7 11.4 40 1.2 3.1 2.6 6.9 5.1 14 .8 2.2 1.9 4.9 2.4 6 .5 1.1 2.5 5.6 4.5 10 3.9 8.4 9 18.9 10.5 21.5.5.8 1.1 2.2 1.4 3 .3.8 1.7 3.3 3.1 5.5 1.3 2.2 3.4 5.6 4.5 7.5 1.1 1.9 2.9 4.8 4 6.5 1.1 1.6 2.3 3.7 2.6 4.5.4.8 1.4 2.3 2.2 3.3.8.9 2 2.6 2.6 3.6 1.7 2.9 9.4 13.7 10.8 15.2.7.8 2.9 3.4 4.7 5.9 1.9 2.5 3.9 4.9 4.5 5.5.6.5 3.3 3.7 6.1 7 13.9 16.7 42.7 42.9 64 58.1 10.5 7.4 12.2 8.4 15 8.4 1.7 0 2.5.5 2.5 1.7 0 2.1 18.8 13 38.2 22.3 98 46.4 215.5 46.3 313.5-.5 37.9-18.1 68-39 99.2-69 8.1-7.9 27.1-28.7 27.1-29.8 0-.3 1.6-2.2 3.5-4.3 2-2.1 5.9-7.3 8.7-11.4 2.9-4.1 5.6-7.6 6-7.8.4-.2.8-.8.8-1.4 0-.6 1.1-2.3 2.5-4 1.4-1.6 2.5-3.6 2.5-4.4 0-.8.5-1.4 1-1.4.6 0 1-.6 1-1.3 0-.8.9-2.2 2-3.2s2-2.4 2-3.1c0-.7.6-1.9 1.4-2.7.8-.8 2.2-2.9 3.1-4.8.8-1.9 2.6-5.2 4-7.4 1.3-2.2 2.4-4.8 2.4-5.8.1-.9.5-1.7.9-1.7.7 0 4.1-6.8 9.2-18.5 1.2-2.8 2.8-6.3 3.6-7.9.8-1.6 1.4-3.5 1.4-4.2 0-.6.8-2.9 1.9-5.1 5.6-11.6 15.2-46.4 18.5-67.3 4.5-28.2 5.1-35.4 5.1-62 0-19.4-.5-29.9-1.7-39-1-6.9-1.9-14.1-2.2-16-1.3-10.4-6-32.7-9.1-43-.7-2.5-2.1-7.2-3.1-10.5-.9-3.3-2.5-7.9-3.5-10.2-1.1-2.4-1.9-4.9-1.9-5.8 0-.8-.9-3-2-5s-2-4.2-2-4.9c0-.7-.6-2.6-1.4-4.2-3.3-6.8-5.6-12.4-5.6-13.6 0-.7-.9-2.4-2-3.8s-2-3.1-2-3.8c0-.8-.8-2.6-1.8-4-1-1.5-2.7-4.7-3.7-7.2-1.9-4.4-4.9-9.4-8-13.5-.8-1-1.5-2.4-1.5-3 0-.6-.8-2-1.7-3.1-1-1-2.9-3.9-4.2-6.4-1.4-2.5-4.6-7.4-7.3-11-2.6-3.6-7.1-9.7-10-13.7-2.9-4-5.6-7.2-6-7.3-.5 0-.8-.5-.8-1.1 0-.6-1.6-2.5-3.5-4.3-1.9-1.9-3.5-3.7-3.5-4.2 0-1.2-37.4-38.4-38.6-38.4-.5 0-2.2-1.6-3.8-3.5-1.6-1.9-3.3-3.5-3.8-3.5-.4 0-4.1-2.6-8.1-5.8-6.2-5-11.8-9-17.6-12.7-.8-.6-2.1-1.5-2.8-2.2-.7-.6-2.6-1.7-4.3-2.5-1.6-.7-3-1.6-3-2 0-.5-.7-.8-1.5-.8s-1.5-.4-1.5-.9-1.8-1.7-4-2.7c-2.2-1-4-2.1-4-2.5 0-.4-1.6-1.3-3.5-1.9-1.9-.6-3.5-1.6-3.5-2 0-.5-1.8-1.5-4-2.1-2.2-.7-4-1.5-4-1.9 0-.3-1.6-1.2-3.5-2s-3.5-1.7-3.5-2.2c0-.4-.7-.8-1.6-.8-.9 0-3.3-.8-5.3-1.8-4.1-2.1-8.3-4-16.1-7.2-3-1.2-7.4-3.1-9.8-4.1-2.3-1-4.9-1.9-5.7-1.9-.8 0-3.4-.8-5.7-1.9-2.4-1-7-2.6-10.3-3.5-3.3-1-8.9-2.5-12.5-3.5-32.9-9.3-72.3-13.6-111-12zm42.5 9.8c25.6 1.6 48.3 5.8 80 15 8.3 2.4 26.6 9.3 35 13.1 2.2 1 5.8 2.6 8 3.5 2.2.9 4.9 2.2 6 2.8 1.1.6 5.4 2.8 9.5 5 14.1 7.3 18.3 9.6 20 11.2.9.8 2.1 1.5 2.6 1.5.6 0 1.9.8 3 1.7 1 1 3.6 2.7 5.7 3.8 2.1 1.1 4.5 2.8 5.4 3.7.9 1 2.1 1.8 2.6 1.8.6 0 1.7.7 2.6 1.5.9.9 3.4 2.9 5.6 4.5 5 3.7 4.4 3.2 14 10.9 4.4 3.6 9.5 7.9 11.2 9.8 1.8 1.8 3.5 3.3 3.8 3.3.7 0 19.5 19 24.7 24.9 2.1 2.3 5.9 6.9 8.4 10.2 2.6 3.2 5.1 5.9 5.5 5.9.5 0 .9.5.9 1 0 .6.5 1.6 1 2.3 4 4.7 5.4 6.5 6.8 8.9.9 1.6 2 2.8 2.4 2.8.4 0 .8.5.8 1 0 .6.8 1.9 1.8 3 .9 1 2.6 3.6 3.7 5.7s2.3 4 2.6 4.3c1.7 1.4 7.7 11.7 15.4 26.5 2 3.8 4.3 8.1 5 9.5.7 1.4 2 4.1 2.9 6 .8 1.9 3.1 6.9 4.9 11 1.9 4.1 3.8 8.6 4.1 10 .4 1.4 1.1 3.4 1.6 4.5 1.3 2.7 4.7 12.9 6.5 19 4.7 16.1 5.8 20.1 8 30.5 4.1 20 6.5 37.9 7.3 56.8.9 21.6-.1 49.5-2.4 64.2-.9 5.8-2 13-2.4 16.1-1.8 13.5-14.4 59.3-17.1 62.3-.5.6-.9 1.6-.9 2.4 0 .8-.9 3.6-2.1 6.1-2.3 5.1-5.3 11.8-7.6 17.1-.8 1.9-2 4.4-2.6 5.5-.6 1.1-2.8 5.4-5 9.5-6.7 12.8-9.2 17.4-12.2 21.9-1.7 2.4-4.1 6.3-5.5 8.7-1.4 2.3-3.3 5.1-4.2 6.1-1 1.1-1.8 2.3-1.8 2.6 0 .4-.7 1.5-1.5 2.5-.9.9-6.3 7.7-12.1 15.1-10.4 13.3-13.3 16.5-26.6 29.9a330.71 330.71 0 0 1-40.3 34.8c-2.2 1.6-4.2 3.1-4.5 3.4-.9.9-13 9-13.5 9-.2 0-2.6 1.5-5.2 3.2-5.6 3.9-8.8 5.7-16.3 9.5-3 1.5-5.7 3.1-6 3.4-.7 1-19.9 9.9-21.3 9.9-.7 0-2.3.9-3.7 2-1.4 1.1-3.1 2-3.8 2-.8 0-2.8.6-4.5 1.4-1.8.7-5.9 2.4-9.2 3.6-3.3 1.2-8.2 3-10.9 4.1-2.7 1-5.7 1.9-6.8 1.9-1.1 0-2.7.4-3.7 1-5 2.6-33.2 8.7-56.1 12.1-12.4 1.9-18.9 2.2-45.5 2.2s-33.1-.3-45.5-2.2c-21.8-3.2-43.1-7.7-55-11.6-20.6-6.6-25.3-8.3-31.7-11.1-1.7-.8-3.7-1.4-4.5-1.4-.7 0-2.4-.9-3.8-2s-3-2-3.6-2c-1.5 0-12.7-5.1-13.4-6-.3-.4-1.7-1-3.2-1.3-1.5-.4-3.3-1.3-4-2-.7-.6-3.9-2.6-7.1-4.2-8.7-4.5-10.8-5.7-16-9.3-2.6-1.7-5-3.2-5.2-3.2-.6 0-12.9-8.4-13.5-9.2-.3-.4-2.3-1.9-4.5-3.4-6.2-4.2-21.6-16.8-28-22.9-3.2-3-5.9-5.5-6.1-5.5-.5 0-12.4-12-12.4-12.5 0-.2-2.4-2.9-5.4-6-5-5.1-21.3-25-26.2-32-1.1-1.7-3.7-5.4-5.7-8.2-2-2.9-3.7-5.7-3.7-6.1 0-.5-.9-1.7-2-2.7-1.1-1-2-2.3-2-3 0-.6-.5-1.6-1.2-2.3-2.3-2.3-17-30.5-23.1-44.2-1.1-2.5-2.6-5.9-3.3-7.5-.7-1.7-2-5-2.9-7.5-.8-2.5-2.5-7.2-3.6-10.5-6.8-19.3-11.7-39.9-16.1-67-2.1-12.7-2.3-17.4-2.2-49 0-36.7.4-41.2 6-70 3.4-17.2 10-40.5 15-52.3.8-1.8 1.4-3.7 1.4-4.3 0-.6.7-2.7 1.6-4.7.9-2.1 2.7-6.2 4.1-9.2 1.3-3 3.3-7.5 4.4-10 1.1-2.5 2.4-5.2 2.9-6 .5-.8 2.5-4.7 4.5-8.5 7.3-14 13.7-25.1 15.4-26.5.3-.3 1.5-2.2 2.6-4.3 1.1-2.1 2.8-4.5 3.8-5.4.9-.9 1.7-2 1.7-2.5 0-.4.8-1.7 1.8-2.7.9-1 2.8-3.5 4.2-5.6 1.4-2 3-4.2 3.5-4.8.6-.7 4.1-5 7.9-9.7 3.8-4.7 8.2-9.7 9.8-11.3 1.5-1.5 2.8-3 2.8-3.3 0-.4 13.3-13.6 23.4-23.1 2.6-2.5 25.7-21.1 31.1-25.1 3.5-2.5 13.7-9.2 14.1-9.2.3 0 1-.5 1.7-1.1 2.6-2.2 15.1-9.6 26.7-15.6 4.1-2.2 8.4-4.4 9.5-5 1.1-.6 3.1-1.5 4.5-2.1 1.4-.6 5-2.1 8-3.5 3-1.3 8-3.4 11-4.7 3-1.2 7-2.8 8.8-3.6 1.8-.8 3.9-1.4 4.6-1.4.7 0 3.5-.8 6.2-1.9 20.3-7.8 58.6-15.6 83.9-17.1 17.2-1 37.8-1 54-.1z
M340.5 119.5c-22.7 2.9-36.9 6-49 10.6-2.8 1-5.7 1.9-6.5 1.9-.9 0-3.2.9-5.3 2-2 1.1-4.2 2-4.8 2-2.1 0-27.2 12-27.7 13.2-.2.4-1.2.8-2.3.8-1 0-1.9.4-1.9.8 0 .5-1.5 1.6-3.2 2.5-6.5 3.4-23.1 14.8-28.8 19.7-18.2 15.8-31.9 29.5-37 37-.8 1.2-2.5 3.3-3.8 4.7-2 2.2-4.6 5.9-8.7 12.1-.5.9-1.3 2.1-1.8 2.6-2.6 3.6-5.7 8.8-5.7 9.5 0 .5-.7 1.4-1.6 2.2-.8.7-2.9 4-4.5 7.3-1.6 3.4-3.3 6.8-3.8 7.6-.4.8-1.8 3.7-3.1 6.5-1.3 2.7-3.2 6.6-4.2 8.6s-1.8 4.2-1.8 4.9c0 .7-.6 2.6-1.3 4.3-5.2 12.3-10.9 34.2-12.7 48.7-.6 4.7-1.3 9.2-1.5 10-.3.8-.9 7.6-1.5 15-2.3 30.3 4.8 76 15.7 101.7.7 1.7 1.3 3.6 1.3 4.3 0 .7.8 2.9 1.9 4.9 1 2 4 8.1 6.7 13.6 2.6 5.5 5.1 10.2 5.4 10.5.3.3 1.1 1.6 1.8 3s2.1 3.8 3.2 5.5c1.1 1.6 2.7 4.5 3.7 6.2.9 1.8 2 3.3 2.5 3.3.4 0 .8.5.8 1.1 0 1.1 6 9.2 7.3 9.7.4.2.7 1 .7 1.7 0 .8.9 1.9 2 2.5 1.1.6 2 1.5 2 1.9 0 1.5 5.8 7.9 18.5 20.6 12.8 12.8 19.1 18.5 20.6 18.5.5 0 .9.4.9.9 0 1.5 22.5 16.7 32.9 22.2 4.2 2.2 8.3 4.5 9.1 4.9 2.4 1.4 17.2 8.2 20 9.1 1.4.4 5.7 2 9.5 3.5 3.9 1.4 8.8 3.1 11 3.6 2.2.6 5.7 1.7 7.8 2.4 2 .8 4.7 1.4 6 1.4 1.2 0 5.8.8 10.2 1.9 10.6 2.6 34.4 5.1 48 5.1 13.6 0 37.4-2.5 48-5.1 4.4-1.1 8.9-1.9 9.9-1.9 2.3 0 11.3-2.5 18.1-5.1 2.8-1 5.7-1.9 6.4-1.9.8 0 3.2-.9 5.5-1.9 2.3-1.1 8.4-3.7 13.6-6 8.2-3.4 16.4-7.8 31.9-16.7 1.8-1 6.5-4.3 10.4-7.3l7-5.5-3.9-1.7c-4-1.7-10.9-3.7-29.4-8.5-5.8-1.5-13.4-3.5-17-4.5-6.4-1.7-7.6-2.1-17.5-5.4-5.1-1.7-12.6-3.9-18-5.4-1.7-.4-4.6-1.5-6.5-2.3-1.9-.9-4.4-1.8-5.5-2.1-1.1-.3-5.1-1.7-9-3.2-3.8-1.5-8.8-3.3-11-4.1-2.2-.8-4.9-1.8-6-2.3-1.1-.5-4.5-1.8-7.5-3.1-3-1.2-7.2-3-9.2-4.1-2-1-4.2-1.9-4.8-1.9-1 0-12.7-5.2-18.2-8.1-1-.5-2.7-1.3-3.8-1.9-1.1-.5-3-1.5-4.2-2.2-1.3-.6-4.5-2.2-7.3-3.5-2.7-1.3-5.8-2.8-6.7-3.3-1-.6-2.7-1.5-3.8-2-4.1-2-6.3-3.2-9.4-4.9-4.9-2.7-16.5-9.4-19.9-11.5-1.8-1-5.2-3-7.7-4.4-2.5-1.4-5.7-3.3-7.2-4.3-1.4-1.1-3.1-1.9-3.7-1.9-.6 0-1.1-.4-1.1-.9s-1.5-1.6-3.2-2.5c-4.4-2.2-6.8-3.7-9.2-5.9-1.1-.9-2.3-1.7-2.7-1.7-.4 0-1.4-.6-2.1-1.3-.7-.7-3.7-2.7-6.5-4.6-2.9-1.8-5.3-3.7-5.3-4.2s-.5-.9-1.1-.9c-1.5 0-15.1-11.2-22-18.2-9-9-15.7-18.6-19-27.3-2.8-7.2-3.1-8.9-2.7-16.2.2-4.5.9-8.7 1.5-9.5.6-.7 1.4-2.4 1.8-3.7 2-6.4 15.3-21.3 24.8-27.8 2.3-1.5 4.4-3 4.7-3.3.8-.8 8.3-5.5 10-6.3.8-.4 3.3-1.8 5.5-3.2 2.2-1.4 5.4-3.2 7-4 1.7-.8 3.7-1.9 4.5-2.4.8-.5 4.9-2.4 9-4.3s9.6-4.5 12.1-5.7c2.5-1.1 5.1-2.1 5.8-2.1.6 0 2.2-.7 3.5-1.5 1.2-.8 5.6-2.7 9.7-4.1 4.1-1.4 8.4-3.2 9.6-4 1.2-.8 3-1.4 3.9-1.4.9 0 3-.7 4.7-1.5 3.9-1.8 21.5-8.2 27.9-10.1 2.6-.8 5-1.9 5.3-2.4.3-.6 1.4-1 2.3-1 1 0 3.4-.9 5.5-2 2-1.1 4.2-2 4.7-2 2.7 0 20.6-9.7 23.8-12.8l3.5-3.6-2.3-1.8c-4.1-3.3-11.4-4.3-52-6.8-31.1-2-40.5-3.5-45.5-7.5-5.6-4.6-3.2-12.8 6.4-22 2-1.9 5.1-4.8 6.9-6.5 4.1-3.9 4.3-8 .6-10.9-2.3-1.8-4.1-2.1-13.8-2.1-10.3 0-19.1 1.1-43.1 5.5-4.4.8-12.5 1.5-18.1 1.5-9.2 0-10.2-.2-12.2-2.3-2.9-3.1-2.8-6 .7-11 5.2-7.6 4.6-7.4 25.6-8 14.1-.5 20.8-1.1 26-2.6 3.9-1 8.7-2.2 10.8-2.5 2-.4 3.7-1.1 3.7-1.6 0-.6-.4-1-.9-1-1.6 0-1.9-3.8-.5-5.8 2.5-3.6 10.1-4.7 42.4-6.2 26.4-1.2 34.5-2.9 51.5-11.1 5.8-2.8 9.6-5.6 14.1-10.1 3.3-3.5 6.6-7.2 7.2-8.3 1-1.8 1.2-1.9 2.7-.4 2.9 2.8 3 8.1.2 13.5-2.7 5.3-9.7 13.4-11.5 13.4-.7 0-1.2.4-1.2.9s-2.5 2.6-5.5 4.6c-3 2.1-5.5 4.2-5.5 4.7 0 .4-.7.8-1.5.8-.7 0-1.8.6-2.2 1.3-.4.7-3.3 3.2-6.3 5.6-9.9 7.9-21.8 20.9-24.5 26.5-3.1 6.5-3.1 6.7-.2 9.3 2.6 2.4 8.1 3.9 19.8 5.3 4.6.5 11.3 1.4 14.9 2 3.6.6 11.7 1.5 18 2 6.3.5 18.7 1.6 27.5 2.4 8.8.9 18.9 1.6 22.5 1.6 10.7 0 37.9 3 46.5 5.2 17.1 4.2 23.1 9.1 20.5 16.7-1.2 3.6-8.1 9.8-13.5 12.3-1.4.6-2.5 1.5-2.5 2 0 .4-.7.8-1.6.8-.8 0-3.2.8-5.2 1.9-8.6 4.3-10.4 5.1-11.3 5.1-.5 0-2.8.8-5.2 1.9-2.3 1-6.7 2.8-9.7 4.1-3 1.3-6.9 2.9-8.7 3.6-1.7.8-3.5 1.4-4 1.4-.4 0-2.8 1-5.3 2.1-6.7 3.2-22.3 10.2-27 12.1-1.4.6-3.3 1.4-4.3 1.9-.9.5-2.5 1.3-3.5 1.8-.9.5-4.4 2.1-7.7 3.7s-6.1 3.2-6.3 3.6c-.2.4-1.1.8-2 .8-.9 0-2.8.9-4.2 2-1.4 1.1-2.8 2-3.3 2-1.5 0-20.7 13-20.7 14 0 .6-.5 1-1.1 1-2.2 0-9.8 9.5-10.9 13.5-1.4 5.1-.1 8.9 4.2 12.8 4.3 3.8 35.2 18.7 38.8 18.7.9 0 2 .3 2.4.7 1 1.1 13.3 5.2 18.1 6.2 2.2.5 5.4 1.4 7 2 1.7.7 5 1.7 7.5 2.2 2.5.4 8.6 1.8 13.5 2.9 5 1.1 11.7 2.5 15 3.1 3.3.6 9.6 1.7 14 2.6 4.4.8 11.6 1.8 16 2.3 4.4.4 14.3 1.5 22 2.4 25.4 2.9 83.5 5 90.8 3.4 2.9-.7 3.3-1.8 5.2-15.8 4.6-32.9 0-78.9-10.6-106.4-1.1-2.7-1.9-5.5-1.9-6.2 0-1.3-.9-3.7-4.9-12.9-4.3-9.8-15.5-31.5-16.2-31.5-.5 0-.9-.9-.9-2s-.4-2-.8-2c-.5 0-1.8-1.8-3.1-4-2.8-4.9-16.9-23.8-22.5-29.9-13.7-15.2-29.9-29.4-45.3-39.9-14.5-9.8-18.3-12.2-19.7-12.2-.8 0-1.6-.3-1.8-.8-.5-1.3-25.5-13.2-27.7-13.2-.6 0-2.8-.9-4.8-2-2.1-1.1-4.4-2-5.3-2-.8 0-3.7-.9-6.5-1.9-10.7-4.1-24-7.1-45-10.2-12.6-1.8-45.2-2-58-.4z
" 
        fill="currentColor" stroke="none" stroke-width="1" />
</svg>